<svg xmlns="http://www.w3.org/2000/svg" width="660" height="450" fill="none" viewBox="0 0 660 450">
    <g clip-path="url(#prefix__clip0)">
        <path style="mix-blend-mode:multiply" fill="url(#prefix__paint0_linear)" d="M622.894 415.015c-40.79 36.663-98.131 35.433-152.181 34.675-55.038-2.59-106.79-4.721-159.204-12.187-52.508-6.714-102.957-18.394-156.733-30.509-52.324-13.613-107.945-27.651-137.6-73.838-14.367-23.407-20.104-53.893-13.79-89.863 6.22-35.696 24.49-76.894 55.782-115.502 31.12-38.536 75.254-74.483 129.197-97.878C242.058 6.423 305.546-4.499 369.701 4.441c64.227 8.41 122.597 35.809 168.149 72.704 45.825 36.866 78.914 83.256 98.75 128.674 19.984 45.537 26.733 90.119 23.311 126.179-3.398 36.376-16.979 64.235-37.017 83.017z"/>
        <path fill="#008DA6" d="M401.999 414.127s45.272-67.876 30.18-93.223c-15.093-25.347-41.064 46.241-47.468 84.676l17.288 8.547z"/>
        <path fill="#008DA6" d="M388.62 408.576s21.27-56.226 6.446-72.609c-14.825-16.382-21.788 39.778-20.134 68.837l13.688 3.772zM250.788 419.337s-30.412-45.603-20.27-62.63c10.141-17.028 27.596 31.064 31.887 56.882l-11.617 5.748z"/>
        <path fill="#008DA6" d="M259.786 415.607s-14.283-37.772-4.327-48.778c9.957-11.005 14.622 26.72 13.516 46.242l-9.189 2.536z"/>
        <g opacity=".28">
            <path fill="#fff" d="M72.88 202.696c4.951-3.986 12.057-2.888 18.377-3.527 4.31-.436 8.48-1.768 12.248-3.909 4.654-2.65 9.391-6.672 14.629-5.55 2.69.596 4.904 2.458 7.439 3.539 5.148 2.196 11.123.889 16.277-1.289 4.546-1.922 9.307-4.56 14.116-3.444 1.91.448 3.63 1.462 5.356 2.429 8.674 4.921 17.797 8.998 27.245 12.175l-115.687-.424zM318.854 124.95c7.784-6.273 18.966-4.548 28.905-5.55 6.779-.687 13.341-2.781 19.27-6.148 7.32-4.177 14.771-10.498 23.002-8.737 4.243.907 7.737 3.873 11.712 5.574 8.094 3.456 17.491 1.397 25.591-2.029 7.141-3.026 14.64-7.162 22.198-5.413 2.976.698 5.714 2.292 8.398 3.814 13.642 7.738 27.99 14.151 42.849 19.151l-181.925-.662zM422.483 219.856c7.785-6.272 18.973-4.548 28.906-5.55 6.779-.687 13.341-2.78 19.27-6.147 7.32-4.178 14.771-10.498 23.008-8.738 4.237.907 7.737 3.873 11.706 5.574 8.1 3.456 17.497 1.397 25.591-2.029 7.141-3.026 14.64-7.162 22.198-5.413 2.976.698 5.713 2.292 8.397 3.814 13.643 7.738 27.991 14.151 42.85 19.152l-181.926-.663z" opacity=".28"/>
        </g>
        <path fill="#194866" d="M329.767 85.721V420.16h-16.729V85.721c0-2.219.877-4.348 2.438-5.92 1.562-1.573 3.681-2.461 5.894-2.47 1.101-.005 2.193.21 3.211.63 1.019.42 1.945 1.037 2.725 1.816.78.78 1.399 1.706 1.821 2.726.423 1.02.64 2.114.64 3.218z"/>
        <path fill="#008DA6" d="M262.229 78.868l-3.323 2.253 3.748 5.557 3.322-2.254-3.747-5.556z"/>
        <path fill="#E4EFFF" d="M261.857 219.296l19.044 51.559c.512 1.386 1.551 2.513 2.891 3.13 1.339.618 2.868.677 4.251.164l86.193-32.019c1.28-.471 2.341-1.403 2.975-2.614l19.687-37.253c.371-.702.588-1.475.637-2.268.049-.793-.071-1.587-.353-2.329-.282-.743-.718-1.416-1.28-1.976s-1.237-.992-1.979-1.269l-38.684-14.324c-1.244-.463-2.612-.463-3.856 0l-86.235 32.037c-.685.253-1.314.64-1.85 1.137s-.969 1.095-1.275 1.76c-.306.665-.478 1.384-.506 2.116-.029.732.087 1.462.34 2.149z"/>
        <path fill="#004AD8" d="M349.746 276.738l11.903 34.239c.319.92.261 1.93-.162 2.808-.423.877-1.176 1.55-2.094 1.871l-57.245 19.993c-.851.298-1.781.27-2.613-.077l-25.591-10.665c-.484-.199-.92-.5-1.278-.881-.359-.382-.632-.836-.801-1.333-.169-.496-.23-1.023-.18-1.545.051-.522.213-1.027.474-1.481l13.688-23.563c.44-.759 1.137-1.335 1.964-1.623l57.275-20.005c.917-.319 1.923-.259 2.796.165.874.424 1.544 1.178 1.864 2.097z"/>
        <path fill="#0075F0" d="M333.91 149.681l6.629 20.961c.089.278.122.572.097.863-.025.291-.107.575-.241.834-.134.26-.319.49-.542.678-.223.188-.482.33-.76.418l-35.035 11.148c-.522.163-1.085.129-1.583-.095l-15.337-6.9c-.289-.13-.547-.32-.757-.559-.21-.238-.367-.519-.46-.823-.093-.304-.12-.624-.079-.939.04-.316.147-.619.314-.889l8.689-14.049c.272-.448.694-.784 1.19-.949l35.06-11.149c.279-.093.575-.13.869-.107.293.022.58.103.842.239.262.135.495.321.684.547.19.227.332.489.42.771z"/>
        <path fill="#008DA6" d="M363.119 103.327l-6.773 39.647c-.09.528-.283 1.033-.568 1.486-.284.453-.655.845-1.091 1.155-.437.309-.929.529-1.45.647-.521.118-1.06.133-1.586.042l-66.28-11.382c-.985-.168-1.873-.695-2.494-1.48l-19.157-24.129c-.365-.456-.627-.986-.77-1.553-.142-.567-.161-1.159-.056-1.734.106-.575.334-1.121.668-1.6.335-.479.768-.88 1.271-1.177l25.882-15.517c.834-.496 1.817-.68 2.773-.52l66.328 11.394c.526.092 1.029.288 1.479.575.451.287.841.66 1.148 1.099.306.439.524.933.64 1.456.116.523.128 1.063.036 1.591z"/>
        <path fill="#E4EFFF" d="M393.965 167.64l-5.968 12.227 7.313 3.589 5.967-12.227-7.312-3.589zM409.418 178.127l-9.288 5.996 3.585 5.585 9.288-5.995-3.585-5.586zM405.463 194.928l-.399 6.631 11.026.666.399-6.63-11.026-.667z"/>
        <path fill="#008DA6" d="M254.275 87.336l-2.3 3.295 5.479 3.847 2.301-3.294-5.48-3.848zM247.68 98.523l-.379 4.004 6.659.634.379-4.005-6.659-.633z"/>
        <path fill="#194866" d="M321.406 122.414c2.886 0 5.225-2.346 5.225-5.24s-2.339-5.24-5.225-5.24c-2.886 0-5.225 2.346-5.225 5.24s2.339 5.24 5.225 5.24zM321.406 232.396c2.886 0 5.225-2.346 5.225-5.24s-2.339-5.24-5.225-5.24c-2.886 0-5.225 2.346-5.225 5.24s2.339 5.24 5.225 5.24zM321.93 309.026c2.021 0 3.66-1.643 3.66-3.67s-1.639-3.67-3.66-3.67c-2.022 0-3.66 1.643-3.66 3.67s1.638 3.67 3.66 3.67zM321.406 167.223c1.154 0 2.089-.938 2.089-2.095 0-1.157-.935-2.095-2.089-2.095-1.153 0-2.089.938-2.089 2.095 0 1.157.936 2.095 2.089 2.095zM461.155 242.506v177.32h-14.717v-177.32c0-5.736 3.291-10.385 7.361-10.385 4.065 0 7.356 4.649 7.356 10.385z"/>
        <path fill="#FD861A" d="M394.071 248.545l-6.055 43.872c-.816 5.913 3.302 11.369 9.198 12.188l105.723 14.674c5.896.818 11.338-3.312 12.154-9.225l6.055-43.871c.816-5.913-3.303-11.37-9.199-12.188l-105.723-14.674c-5.896-.819-11.337 3.311-12.153 9.224z"/>
        <path fill="#39C5A5" d="M77.718 420.16c24.918-5.616 40.57-13.876 58.739-20.889 16.158-6.23 30.715-14.842 47.509-19.999 16.795-5.156 37.422-6.26 51.848 2.095 11.486 6.631 17.17 18.089 29.346 23.956 20.973 10.098 48.087-1.116 67.369-13.01 19.282-11.895 42.403-25.729 66.155-20.286 8.968 2.053 16.461 6.66 24.4 10.474 19.639 9.483 44.48 14.323 66.5 8.63 29.489-7.616 51.181-32.741 82.253-30.987 19.604 1.104 34.863 12.903 48.146 23.938 13.605 11.298 27.204 24.697 40.808 35.994l-583.073.084z"/>
        <path fill="#E9D6B8" d="M197.143 280.749c-2.244 1.02-2.577-2.089-2.577-2.089-2.273.244-.661-8.493-.595-8.953-.348.708-.857 1.324-1.485 1.799-.628.475-1.359.795-2.134.935l2.714-11.304c-.595-5.449 3.488-11.399 3.488-11.399l-1.191-8.654-5.177-57.581c-1.19-7.347 13.497-11.136 13.48-9.71-.149 13.399 2.154 92.668 2.154 92.668l-5.743 12.414c-1.303 2.476-2.934 1.874-2.934 1.874z"/>
        <path fill="#B0BFDE" d="M197.09 232.203l-1.292 67.751c.36 2.115.36 4.276 0 6.392l-17.151 99.286h-22.27l13.093-100.51-12.438-72.919h40.058z"/>
        <path fill="#161711" d="M154.734 419.76h43.891s3.791-5.705-11.587-10.886c-.57-.189-1.121-.429-1.648-.716l-6.416-3.515-23.579-.657-.661 15.774z"/>
        <path fill="#194866" d="M140.98 419.758h43.891s3.791-5.711-11.611-10.892c-.555-.188-1.095-.421-1.612-.698l-7.737-4.178h-22.27l-.661 15.768z"/>
        <path fill="#D1DBEA" d="M141.308 239.432l9.855 68.974-9.855 95.914h22.948l16.812-97.925c.143-.846.203-1.704.179-2.561l-1.887-64.402h-38.052z"/>
        <path fill="#E2C59C" d="M162.662 109.813l1.94 28.409 16.473.758.036-7.252v-1.742l.041-7.043v-.203l.232-.035c14.879-2.197 9.522-38.304 9.522-38.304-15.985-7.162-27.376.388-31.244 10.916-3.868 10.528 3 14.496 3 14.496z"/>
        <path fill="#163F59" d="M199.09 146.523l7.32 35.648h-12.546l5.226-35.648z"/>
        <path fill="#194866" d="M131.827 156.544c.524 1.307 1.006 2.65 1.464 4.046 6.666 20.035 8.16 85.745 8.16 85.745l55.549.835c0-.131 2.089-100.647 2.089-100.647.595.406-16.932-11.178-17.122-11.339-10.712 6.809-18.169-4.077-18.169-4.077-8.826 2.334-21.092 6.225-26.228 8.589-.17.063-.349.141-.535.232l-.066.036c-1.714.773-3.187 1.997-4.261 3.543-1.074 1.547-1.71 3.356-1.839 5.236-.123 2.636.201 5.274.958 7.801z"/>
        <path fill="#163F59" d="M131.827 156.544c.524 1.307 1.006 2.65 1.465 4.046 1.833 4.524 4.213 9.848 7.296 16.061 3.083 6.213 17.717-7.061 17.717-7.061l-8.272-24.2c-.548-1.605-1.509-3.037-2.786-4.149-1.278-1.112-2.825-1.865-4.487-2.184-1.754-.298-3.557-.078-5.189.633-.171.064-.35.141-.536.233l-.066.036c-1.714.772-3.186 1.997-4.261 3.543-1.074 1.546-1.71 3.356-1.839 5.236-.123 2.637.201 5.277.958 7.806z"/>
        <path fill="#E9D6B8" d="M141.308 178.09l4.701 6.816 14.224 20.632c.894 1.296 2.147 2.301 3.604 2.89 1.457.59 3.055.738 4.595.427 1.541-.311 2.957-1.068 4.073-2.177 1.116-1.11 1.883-2.523 2.207-4.064l3.916-18.693 2.381-14.425.541-3.342 2.577-15.863s4.684-4.697 5.464-7.049c0 0 1.559-8.6.785-10.146-.773-1.545-2.345 0-2.345 0s-.41-7.006-.41-8.558c0-3.151-.262-3.151-1.048-3.151-2.089 0-3.13 3.151-3.225 8.582l-1.56 6.255-4.165 4.1.291-5.658s-3.898-.782-3.898 5.473l1.553 6.26-6.635 23.097-4.339 14.771-5.904-14.771-.428.209-16.955 8.385z"/>
        <path fill="#163F59" d="M167.975 100.808s4.988-8.105 2.22-11.853c0 0 14.283 10.666 21.098.335 7.141-10.827-7.672-20.513-25.27-10.039 0 0-5.094-1.623-9.522 4.775 0 0-3.618 14.92 7.064 29.99v-5.246s-5.326-9.43 1.351-10.385c.668.126 1.294.412 1.827.834.533.422.956.968 1.232 1.589z"/>
        <path fill="#000" d="M166.994 116.654c3.97 10.743 10.945 14.079 14.117 15.076v-1.743l.041-7.042v-.203l.232-.036c-7.278-.788-14.152-5.879-14.39-6.052zM141.308 178.09l4.701 6.816 12.254-15.195-16.955 8.379z" opacity=".12"/>
        <path fill="#fff" d="M430.28 282.073l4.225.597-1.053 7.449-4.231-.597-1.256 8.851-9.588-1.379 1.256-8.845-16.069-2.298.262-5.968 20.461-24.469v-.084l9.623 1.373-3.63 25.37zm-17.104-2.441l7.481 1.069 1.821-12.826-.738.883-8.564 10.874zM467.725 286.657c-.794 5.634-2.67 9.798-5.63 12.492-2.96 2.693-6.729 3.714-11.308 3.061-4.626-.664-7.986-2.713-10.081-6.147-2.095-3.433-2.746-7.947-1.952-13.542l1.047-7.615c.794-5.634 2.672-9.798 5.636-12.491 2.964-2.694 6.745-3.713 11.343-3.056 4.607.656 7.959 2.702 10.058 6.135 2.099 3.434 2.747 7.958 1.946 13.572l-1.059 7.591zm-8.368-10.223c.429-2.984.351-5.288-.214-6.881-.236-.742-.683-1.399-1.287-1.888-.604-.489-1.338-.789-2.111-.864-.731-.146-1.489-.078-2.182.196-.693.274-1.293.743-1.728 1.35-.945 1.269-1.643 3.292-2.095 6.07l-1.512 10.653c-.444 3.115-.377 5.449.203 7.001.245.731.698 1.375 1.302 1.853.605.478 1.335.77 2.102.838.736.14 1.498.064 2.193-.217.695-.281 1.295-.757 1.729-1.37.982-1.289 1.696-3.438 2.136-6.428l1.464-10.313zM498.035 291.743l4.226.597-1.06 7.449-4.225-.597-1.232 8.845-9.623-1.373 1.232-8.851-16.069-2.298.262-5.968 20.461-24.469v-.084l9.623 1.373-3.595 25.376zm-17.11-2.441l7.487 1.069 1.821-12.832-.738.889-8.57 10.874z"/>
    </g>
    <defs>
        <linearGradient id="prefix__paint0_linear" x1="647.539" x2="85.367" y1="398.345" y2="89.709" gradientUnits="userSpaceOnUse">
            <stop stop-color="#81ABEC"/>
            <stop offset="1" stop-color="#5BC0CB"/>
        </linearGradient>
        <clipPath id="prefix__clip0">
            <path fill="#fff" d="M0 0H660V450H0z"/>
        </clipPath>
    </defs>
</svg>
